<svg xmlns="http://www.w3.org/2000/svg" width="22" height="22" viewBox="0 0 21.002 23.5">
        <path data-name="Path 337551" d="M1591.25 1038.75v1.25a.75.75 0 0 0 1.5 0v-1.25h1.471a1.25 1.25 0 0 1 1.242 1.1l1.529 13a1.249 1.249 0 0 1-1.241 1.4h-15.5a1.249 1.249 0 0 1-1.241-1.4l1.529-13a1.25 1.25 0 0 1 1.241-1.1h1.472v1.25a.75.75 0 0 0 1.5 0v-1.25zm1.5-1.5v-.25a4.75 4.75 0 0 0-9.5 0v.25h-1.472a2.75 2.75 0 0 0-2.731 2.429l-1.529 13a2.75 2.75 0 0 0 2.731 3.071h15.5a2.75 2.75 0 0 0 2.731-3.071l-1.529-13a2.751 2.751 0 0 0-2.732-2.429zm-4.75-3.5a3.25 3.25 0 0 0-3.25 3.25v.25h6.5v-.25a3.25 3.25 0 0 0-3.25-3.25z" transform="translate(-1577.499 -1032.25)" style="fill:#1a2024;fill-rule:evenodd"></path>
    </svg>
