<svg xmlns="http://www.w3.org/2000/svg" width="28" height="28" viewBox="0 0 28 28">
            <g id="Group_334289" data-name="Group 334289" transform="translate(7827 572)">
              <rect id="Rectangle_114330" data-name="Rectangle 114330" width="28" height="28" transform="translate(-7827 -572)" fill="none"></rect>
              <path id="Vector" d="M2.75,1.5h4V0h-4ZM8,2.75v4H9.5v-4ZM6.75,8h-4V9.5h4ZM1.5,6.75v-4H0v4ZM2.75,8A1.25,1.25,0,0,1,1.5,6.75H0A2.75,2.75,0,0,0,2.75,9.5ZM8,6.75A1.25,1.25,0,0,1,6.75,8V9.5A2.75,2.75,0,0,0,9.5,6.75ZM6.75,1.5A1.25,1.25,0,0,1,8,2.75H9.5A2.75,2.75,0,0,0,6.75,0ZM2.75,0A2.75,2.75,0,0,0,0,2.75H1.5A1.25,1.25,0,0,1,2.75,1.5ZM20,4.75A3.25,3.25,0,0,1,16.75,8V9.5A4.75,4.75,0,0,0,21.5,4.75ZM16.75,8A3.25,3.25,0,0,1,13.5,4.75H12A4.75,4.75,0,0,0,16.75,9.5ZM13.5,4.75A3.25,3.25,0,0,1,16.75,1.5V0A4.75,4.75,0,0,0,12,4.75ZM16.75,1.5A3.25,3.25,0,0,1,20,4.75h1.5A4.75,4.75,0,0,0,16.75,0ZM8,16.75A3.25,3.25,0,0,1,4.75,20v1.5A4.75,4.75,0,0,0,9.5,16.75ZM4.75,20A3.25,3.25,0,0,1,1.5,16.75H0A4.75,4.75,0,0,0,4.75,21.5ZM1.5,16.75A3.25,3.25,0,0,1,4.75,13.5V12A4.75,4.75,0,0,0,0,16.75ZM4.75,13.5A3.25,3.25,0,0,1,8,16.75H9.5A4.75,4.75,0,0,0,4.75,12Zm10,0h4V12h-4ZM20,14.75v4h1.5v-4ZM18.75,20h-4v1.5h4ZM13.5,18.75v-4H12v4ZM14.75,20a1.25,1.25,0,0,1-1.25-1.25H12a2.75,2.75,0,0,0,2.75,2.75ZM20,18.75A1.25,1.25,0,0,1,18.75,20v1.5a2.75,2.75,0,0,0,2.75-2.75ZM18.75,13.5A1.25,1.25,0,0,1,20,14.75h1.5A2.75,2.75,0,0,0,18.75,12Zm-4-1.5A2.75,2.75,0,0,0,12,14.75h1.5a1.25,1.25,0,0,1,1.25-1.25Z" transform="translate(-7824 -569.25)" fill="#1a2024"></path>
            </g>
          </svg>