<svg xmlns="http://www.w3.org/2000/svg" width="28" height="28" viewBox="0 0 28 28">
            <g id="Group_334287" data-name="Group 334287" transform="translate(7687 572)">
              <rect id="Rectangle_114332" data-name="Rectangle 114332" width="28" height="28" transform="translate(-7687 -572)" fill="none"></rect>
              <g id="Group_334286" data-name="Group 334286" transform="translate(-1493.774 -411)">
                <path id="Digital_Inline_White" d="M11.581,0A11.49,11.49,0,0,0,1.629,17.225L0,23.176l6.088-1.6a11.474,11.474,0,0,0,5.488,1.4h0A11.489,11.489,0,0,0,11.581,0Zm0,21.038h0a9.528,9.528,0,0,1-4.858-1.331L6.37,19.5l-3.612.948.964-3.522-.227-.361a9.545,9.545,0,1,1,8.086,4.473Z" transform="translate(-6190.226 -159)" fill="#1a2024" stroke="#fff" stroke-width="0.5"></path>
                <path id="Digital_Inline_White-2" data-name="Digital_Inline_White" d="M17.547,14.507c-.3-.149-1.765-.871-2.039-.971s-.473-.149-.672.149-.771.971-.944,1.17-.348.224-.646.075a8.157,8.157,0,0,1-2.4-1.481,8.974,8.974,0,0,1-1.66-2.067c-.174-.3-.019-.46.131-.609.134-.133.3-.348.447-.523a2.017,2.017,0,0,0,.3-.5.55.55,0,0,0-.025-.523c-.075-.149-.672-1.618-.92-2.216-.242-.581-.488-.5-.672-.512s-.373-.01-.572-.01a1.1,1.1,0,0,0-.8.373A3.346,3.346,0,0,0,6.034,9.353,5.808,5.808,0,0,0,7.252,12.44a13.3,13.3,0,0,0,5.1,4.505,17.208,17.208,0,0,0,1.7.628,4.093,4.093,0,0,0,1.879.118,3.073,3.073,0,0,0,2.014-1.419,2.494,2.494,0,0,0,.174-1.419c-.075-.124-.274-.2-.572-.348Z" transform="translate(-6190.747 -159.527)" fill="#1a2024"></path>
              </g>
            </g>
          </svg>