<svg xmlns="http://www.w3.org/2000/svg" width="28" height="28" viewBox="0 0 28 28"> 
            <g id="Group_334290" data-name="Group 334290" transform="translate(7899 572)">
              <rect id="Rectangle_114329" data-name="Rectangle 114329" width="28" height="28" transform="translate(-7899 -572)" fill="none"></rect>
              <path id="Union_39" data-name="Union 39" d="M1254.15-20139.615l-.511-.6a1.267,1.267,0,0,0-1.245-.4l-.764.182a2.748,2.748,0,0,1-3.38-2.453l-.061-.785a1.243,1.243,0,0,0-.769-1.053l-.724-.3a2.748,2.748,0,0,1-1.29-3.973l.41-.674a1.259,1.259,0,0,0,0-1.3l-.41-.668a2.747,2.747,0,0,1,1.29-3.973l.724-.3a1.244,1.244,0,0,0,.769-1.059l.061-.783a2.755,2.755,0,0,1,3.38-2.455l.764.182a1.256,1.256,0,0,0,1.245-.4l.511-.6a2.747,2.747,0,0,1,4.18,0l.506.6a1.259,1.259,0,0,0,1.245.4l.764-.182a2.755,2.755,0,0,1,3.38,2.455l.061.783a1.244,1.244,0,0,0,.769,1.059l.724.3a2.747,2.747,0,0,1,1.29,3.973l-.41.668a1.259,1.259,0,0,0,0,1.3l.41.674a2.748,2.748,0,0,1-1.29,3.973l-.724.3a1.243,1.243,0,0,0-.769,1.053l-.061.785a2.748,2.748,0,0,1-3.38,2.453l-.764-.182a1.271,1.271,0,0,0-1.245.4l-.506.6a2.735,2.735,0,0,1-2.09.963A2.736,2.736,0,0,1,1254.15-20139.615Zm.627-1.574.511.6a1.244,1.244,0,0,0,1.9,0l.511-.6a2.756,2.756,0,0,1,2.732-.885l.764.182a1.245,1.245,0,0,0,1.533-1.113l.066-.785a2.738,2.738,0,0,1,1.685-2.322l.724-.3a1.246,1.246,0,0,0,.587-1.807l-.41-.668a2.759,2.759,0,0,1,0-2.869l.41-.674a1.248,1.248,0,0,0-.587-1.807l-.724-.3a2.753,2.753,0,0,1-1.685-2.324l-.066-.783a1.252,1.252,0,0,0-1.533-1.119l-.764.188a2.759,2.759,0,0,1-2.732-.891l-.511-.6a1.249,1.249,0,0,0-1.9,0l-.511.6a2.754,2.754,0,0,1-2.727.891l-.764-.187a1.254,1.254,0,0,0-1.538,1.119l-.061.783a2.777,2.777,0,0,1-1.69,2.324l-.724.3a1.251,1.251,0,0,0-.587,1.807l.41.674a2.759,2.759,0,0,1,0,2.869l-.41.668a1.25,1.25,0,0,0,.587,1.807l.724.3a2.761,2.761,0,0,1,1.69,2.322l.061.785a1.247,1.247,0,0,0,1.538,1.113l.764-.182a2.733,2.733,0,0,1,.638-.076A2.752,2.752,0,0,1,1254.777-20141.189Zm-2.07-5.607a.744.744,0,0,1,0-1.057l6-6a.746.746,0,0,1,1.058,0,.746.746,0,0,1,0,1.059l-6,6a.73.73,0,0,1-.527.221A.742.742,0,0,1,1252.708-20146.8Zm5.677-1.031a1,1,0,0,1,1-1,1,1,0,0,1,1,1,1,1,0,0,1-1,1A1,1,0,0,1,1258.385-20147.828Zm-6-5a1,1,0,0,1,1-1,1,1,0,0,1,1,1,1,1,0,0,1-1,1A1,1,0,0,1,1252.384-20152.828Z" transform="translate(-9141.001 19591.826)" fill="#1a2024" stroke="rgba(0,0,0,0)" stroke-miterlimit="10" stroke-width="1"></path>
            </g>
          </svg>