<svg xmlns="http://www.w3.org/2000/svg" width="28" height="28" viewBox="0 0 28 28">
            <g id="Group_334291" data-name="Group 334291" transform="translate(7969 572)">
              <rect id="Rectangle_114322" data-name="Rectangle 114322" width="28" height="28" transform="translate(-7969 -572)" fill="none"></rect>
              <path id="Path_341257" data-name="Path 341257" d="M1110.25,237.25V231a1.25,1.25,0,0,0-1.25-1.25h-2a1.25,1.25,0,0,0-1.25,1.25v6.25Zm6.5-11.959,1.809,1.316a.75.75,0,1,0,.882-1.213l-9.824-7.145a2.749,2.749,0,0,0-3.234,0l-9.824,7.145a.75.75,0,1,0,.882,1.213l1.809-1.316V236a2.75,2.75,0,0,0,2.75,2.75h12a2.75,2.75,0,0,0,2.75-2.75Zm-8.015-5.829a1.249,1.249,0,0,0-1.47,0l-6.515,4.738V236a1.25,1.25,0,0,0,1.25,1.25h2.25V231a2.75,2.75,0,0,1,2.75-2.75h2a2.75,2.75,0,0,1,2.75,2.75v6.25H1114a1.25,1.25,0,0,0,1.25-1.25V224.2Z" transform="translate(-9063.25 -786.736)" fill="#1a2024" fill-rule="evenodd"></path>
            </g>
          </svg>