<?xml version="1.0" encoding="UTF-8"?><svg id="Layer_2" xmlns="http://www.w3.org/2000/svg" viewBox="0 0 211.23 382.92"><defs><style>.cls-1{fill:#8b8b8b;}</style></defs><g id="Layer_1-2"><path class="cls-1" d="m165.43,191.5c-1.92-1.35-3.3-2.06-4.34-3.1C109.86,137.21,58.66,85.99,7.46,34.77-.31,27-2.05,18.36,2.44,10.06,8.06-.33,21.76-3.24,31.1,4.01c1.57,1.22,3,2.64,4.41,4.05,51.66,51.64,103.3,103.3,154.97,154.93,4.57,4.57,9.49,8.8,14.05,13.38,8.85,8.89,8.97,20.42.17,29.22-56.91,56.98-113.87,113.92-170.83,170.86-5.66,5.66-12.38,7.94-20.18,5.48-7.26-2.29-11.66-7.41-13.28-14.86-1.14-5.24.42-9.89,3.42-14.11,1.22-1.71,2.75-3.23,4.25-4.73,50.93-50.96,101.86-101.91,152.81-152.85,1.06-1.05,2.27-1.95,4.54-3.9Z"/></g></svg>